<svg width="290" height="290" viewBox="0 0 290 290" fill="none" xmlns="http://www.w3.org/2000/svg">
<circle cx="145" cy="145" r="145" fill="#D9D9D9"/>
<path d="M52.5936 131.096H58.1864V155.456H70.7393V160.759H52.5936V131.096ZM84.2032 161.422C82.1042 161.422 80.2123 160.938 78.5275 159.972C76.8428 159.005 75.517 157.679 74.5504 155.995C73.6113 154.282 73.1418 152.363 73.1418 150.236C73.1418 148.22 73.6113 146.355 74.5504 144.643C75.4894 142.903 76.7875 141.522 78.4447 140.5C80.1018 139.478 81.9523 138.967 83.9961 138.967C86.178 138.967 88.0561 139.437 89.6304 140.376C91.2047 141.315 92.3923 142.599 93.1932 144.229C94.0218 145.858 94.4361 147.667 94.4361 149.656C94.4361 150.291 94.3947 150.899 94.3118 151.479H78.4447C78.7208 153.164 79.3837 154.448 80.4332 155.332C81.5104 156.188 82.7947 156.616 84.2861 156.616C85.5289 156.616 86.5923 156.354 87.4761 155.829C88.3875 155.276 89.1056 154.545 89.6304 153.633L94.0218 155.787C91.8675 159.544 88.5947 161.422 84.2032 161.422ZM89.2161 147.626C89.1608 146.963 88.9123 146.314 88.4704 145.679C88.0561 145.016 87.4623 144.477 86.6889 144.063C85.9432 143.621 85.0594 143.4 84.0375 143.4C82.7394 143.4 81.6208 143.787 80.6818 144.56C79.7704 145.306 79.1075 146.328 78.6932 147.626H89.2161ZM107.207 161.09C106.158 161.09 105.191 160.938 104.307 160.635C103.423 160.303 102.705 159.861 102.153 159.309C100.855 158.066 100.206 156.298 100.206 154.006V144.27H96.5185V139.63H100.206V133.665H105.633V139.63H110.811V144.27H105.633V153.012C105.633 154.089 105.868 154.862 106.337 155.332C106.724 155.774 107.387 155.995 108.326 155.995C108.85 155.995 109.279 155.925 109.61 155.787C109.969 155.649 110.425 155.415 110.977 155.083V160.386C109.789 160.855 108.533 161.09 107.207 161.09ZM114.746 140.5L116.859 137.269C116.223 137.02 115.699 136.606 115.284 136.026C114.87 135.446 114.663 134.783 114.663 134.037C114.663 133.043 115.008 132.201 115.699 131.51C116.417 130.792 117.273 130.433 118.267 130.433C119.262 130.433 120.104 130.792 120.794 131.51C121.485 132.201 121.83 133.043 121.83 134.037C121.83 134.535 121.747 134.99 121.582 135.405C121.416 135.791 121.153 136.247 120.794 136.772L117.19 142.116L114.746 140.5ZM132.425 161.422C129.857 161.422 127.772 160.897 126.17 159.847C124.595 158.798 123.491 157.431 122.855 155.746L127.703 153.633C128.144 154.627 128.766 155.387 129.567 155.912C130.395 156.409 131.348 156.657 132.425 156.657C133.42 156.657 134.248 156.505 134.911 156.202C135.574 155.87 135.905 155.345 135.905 154.627C135.905 153.937 135.602 153.426 134.994 153.095C134.386 152.735 133.475 152.418 132.26 152.142L129.774 151.603C128.062 151.189 126.639 150.443 125.507 149.366C124.374 148.261 123.808 146.894 123.808 145.265C123.808 144.049 124.167 142.958 124.885 141.992C125.631 141.025 126.625 140.279 127.868 139.755C129.139 139.23 130.534 138.967 132.053 138.967C136.416 138.967 139.33 140.5 140.794 143.566L136.154 145.596C135.325 144.105 134 143.359 132.177 143.359C131.238 143.359 130.492 143.538 129.94 143.897C129.387 144.229 129.111 144.657 129.111 145.182C129.111 146.176 130.05 146.922 131.928 147.419L135.035 148.165C137.134 148.689 138.709 149.49 139.758 150.567C140.835 151.645 141.374 152.97 141.374 154.545C141.374 155.898 140.974 157.099 140.173 158.149C139.399 159.171 138.322 159.972 136.941 160.552C135.588 161.132 134.083 161.422 132.425 161.422ZM160.109 136.399H151.823V131.096H173.987V136.399H165.702V160.759H160.109V136.399ZM181.059 161.422C178.822 161.422 176.985 160.773 175.549 159.475C174.113 158.149 173.395 156.423 173.395 154.296C173.395 152.887 173.768 151.645 174.513 150.567C175.259 149.49 176.281 148.662 177.579 148.082C178.877 147.502 180.313 147.212 181.888 147.212C184.069 147.212 185.934 147.529 187.48 148.165V147.253C187.48 146.093 187.039 145.154 186.155 144.436C185.299 143.718 184.139 143.359 182.675 143.359C181.68 143.359 180.714 143.594 179.775 144.063C178.863 144.505 178.104 145.099 177.496 145.845L174.016 143.11C175.038 141.785 176.322 140.763 177.869 140.045C179.416 139.326 181.1 138.967 182.923 138.967C186.155 138.967 188.613 139.713 190.298 141.205C191.982 142.696 192.825 144.878 192.825 147.75V160.759H187.48V158.605H187.149C186.514 159.433 185.671 160.11 184.622 160.635C183.6 161.159 182.412 161.422 181.059 161.422ZM182.343 157.196C183.918 157.196 185.16 156.699 186.072 155.705C187.011 154.683 187.48 153.495 187.48 152.142C186.072 151.479 184.594 151.147 183.048 151.147C180.23 151.147 178.822 152.197 178.822 154.296C178.822 155.152 179.126 155.856 179.733 156.409C180.341 156.934 181.211 157.196 182.343 157.196ZM197.819 131.096H203.246V160.759H197.819V131.096ZM208.581 131.096H214.008V147.253H214.298L221.879 139.63H228.549V139.962L220.553 147.792L228.922 160.427V160.759H222.501L216.742 151.52L214.008 154.213V160.759H208.581V131.096ZM232.219 139.63V131.096H237.771V139.63L237.274 150.567H232.717L232.219 139.63ZM234.995 161.007C234.001 161.007 233.145 160.662 232.427 159.972C231.736 159.254 231.391 158.397 231.391 157.403C231.391 156.409 231.736 155.566 232.427 154.876C233.145 154.185 234.001 153.84 234.995 153.84C235.989 153.84 236.832 154.185 237.522 154.876C238.24 155.566 238.599 156.409 238.599 157.403C238.599 158.397 238.24 159.254 237.522 159.972C236.832 160.662 235.989 161.007 234.995 161.007Z" fill="#703EFE"/>
</svg>
