<svg width="79" height="52" viewBox="0 0 79 52" fill="none" xmlns="http://www.w3.org/2000/svg">
<path d="M20.6172 20.308V22.7214L17.0812 23.3762C17.4055 23.8128 17.6737 24.3491 17.8857 24.9852C18.0977 25.6213 18.2037 26.2948 18.2037 27.0058C18.2037 29.1386 17.4679 30.8161 15.9961 32.0384C14.5243 33.2608 12.4975 33.8719 9.91571 33.8719C9.25466 33.8719 8.65598 33.822 8.11965 33.7222C7.17174 34.3085 6.69778 34.9944 6.69778 35.7802C6.69778 36.2542 6.91605 36.6096 7.35259 36.8466C7.8016 37.0836 8.61856 37.2021 9.80345 37.2021H13.4143C15.6968 37.2021 17.4304 37.6885 18.6153 38.6614C19.8002 39.6343 20.3927 41.0374 20.3927 42.8709C20.3927 45.2157 19.4261 47.0243 17.4928 48.2965C15.5596 49.5687 12.7657 50.2048 9.11123 50.2048C6.29242 50.2048 4.1409 49.7059 2.65666 48.7081C1.17242 47.7103 0.430304 46.2884 0.430304 44.4424C0.430304 43.1702 0.829427 42.0976 1.62767 41.2245C2.43839 40.3639 3.56716 39.7652 5.01398 39.4285C4.42777 39.179 3.94134 38.7799 3.55469 38.2311C3.18051 37.6698 2.99342 37.0836 2.99342 36.4725C2.99342 35.6992 3.21169 35.0443 3.64823 34.508C4.08477 33.9717 4.73335 33.4416 5.59396 32.9178C4.52131 32.4563 3.64823 31.7079 2.97471 30.6727C2.31366 29.625 1.98314 28.4027 1.98314 27.0058C1.98314 24.7607 2.68784 23.0208 4.09724 21.786C5.51912 20.5512 7.53968 19.9338 10.1589 19.9338C10.7451 19.9338 11.3563 19.9775 11.9924 20.0648C12.641 20.1396 13.1274 20.2207 13.4517 20.308H20.6172ZM4.35917 44.2179C4.35917 45.1658 4.78324 45.8955 5.63137 46.4069C6.49198 46.9182 7.69559 47.1739 9.24219 47.1739C11.6369 47.1739 13.4205 46.8309 14.5929 46.1449C15.7654 45.4589 16.3516 44.5485 16.3516 43.4134C16.3516 42.5154 16.0273 41.8731 15.3787 41.4864C14.7426 41.1123 13.5515 40.9252 11.8053 40.9252H8.47512C7.21539 40.9252 6.21135 41.2183 5.46299 41.8045C4.72711 42.4032 4.35917 43.2076 4.35917 44.2179ZM6.24877 27.0058C6.24877 28.3029 6.57929 29.3007 7.24034 29.9992C7.91386 30.6976 8.87425 31.0469 10.1215 31.0469C12.6659 31.0469 13.9381 29.6874 13.9381 26.9683C13.9381 25.6213 13.6201 24.5861 12.984 23.8627C12.3603 23.1268 11.4062 22.7588 10.1215 22.7588C8.8493 22.7588 7.88268 23.1205 7.22163 23.844C6.57305 24.5674 6.24877 25.6213 6.24877 27.0058ZM38.6099 30.6166C38.6099 33.9966 37.743 36.6346 36.0094 38.5304C34.2757 40.4263 31.8622 41.3742 28.769 41.3742C26.8358 41.3742 25.127 40.9376 23.6428 40.0646C22.1585 39.1915 21.0173 37.938 20.2191 36.3041C19.4208 34.6702 19.0217 32.7743 19.0217 30.6166C19.0217 27.2614 19.8823 24.6422 21.6035 22.7588C23.3247 20.8755 25.7507 19.9338 28.8813 19.9338C31.8747 19.9338 34.2445 20.9004 35.9906 22.8337C37.7368 24.7545 38.6099 27.3488 38.6099 30.6166ZM23.5492 30.6166C23.5492 35.3936 25.3141 37.7821 28.8439 37.7821C32.3362 37.7821 34.0823 35.3936 34.0823 30.6166C34.0823 25.8895 32.3237 23.5259 28.8064 23.5259C26.9605 23.5259 25.6197 24.1371 24.784 25.3594C23.9608 26.5817 23.5492 28.3341 23.5492 30.6166ZM50.0358 19.9338C52.6176 19.9338 54.6257 20.8692 56.06 22.7401C57.5069 24.611 58.2303 27.2365 58.2303 30.6166C58.2303 34.0091 57.5006 36.6533 56.0413 38.5491C54.582 40.4325 52.5552 41.3742 49.9609 41.3742C47.3417 41.3742 45.3087 40.4325 43.8618 38.5491H43.5625L42.758 41H39.4653V11.889H43.8618V18.8113C43.8618 19.3226 43.8369 20.0835 43.787 21.0938C43.7371 22.104 43.6997 22.7464 43.6748 23.0208H43.8618C45.2588 20.9628 47.3168 19.9338 50.0358 19.9338ZM48.8945 23.5259C47.1234 23.5259 45.845 24.0498 45.0592 25.0975C44.2859 26.1327 43.8868 27.8726 43.8618 30.3172V30.6166C43.8618 33.136 44.261 34.9633 45.0592 36.0983C45.8575 37.2208 47.1608 37.7821 48.9694 37.7821C50.5284 37.7821 51.7071 37.1647 52.5054 35.9299C53.3161 34.6951 53.7214 32.9115 53.7214 30.5792C53.7214 25.877 52.1125 23.5259 48.8945 23.5259ZM72.0696 41L71.1903 38.1188H71.0406C70.0428 39.3786 69.0388 40.2392 68.0285 40.7007C67.0182 41.1497 65.7211 41.3742 64.137 41.3742C62.104 41.3742 60.5138 40.8254 59.3663 39.7278C58.2313 38.6302 57.6638 37.0774 57.6638 35.0693C57.6638 32.9365 58.4558 31.3275 60.0398 30.2424C61.6238 29.1573 64.0373 28.5648 67.2801 28.465L70.8535 28.3528V27.249C70.8535 25.9269 70.5417 24.9415 69.9181 24.293C69.3069 23.6319 68.3528 23.3014 67.0556 23.3014C65.9955 23.3014 64.9789 23.4573 64.0061 23.7691C63.0332 24.0809 62.0978 24.4489 61.1997 24.8729L59.7779 21.7299C60.9004 21.1436 62.129 20.7009 63.4635 20.4015C64.7981 20.0897 66.0578 19.9338 67.2427 19.9338C69.8744 19.9338 71.8576 20.5075 73.1921 21.655C74.5392 22.8025 75.2127 24.6048 75.2127 27.0619V41H72.0696ZM65.5215 38.0066C67.118 38.0066 68.3964 37.5638 69.3568 36.6782C70.3297 35.7802 70.8161 34.5267 70.8161 32.9178V31.1217L68.1594 31.234C66.089 31.3088 64.5798 31.658 63.6319 32.2817C62.6965 32.8928 62.2287 33.8345 62.2287 35.1067C62.2287 36.0297 62.5031 36.7468 63.0519 37.2582C63.6007 37.7571 64.4239 38.0066 65.5215 38.0066Z" fill="white"/>
</svg>
